<svg width="20" height="20" viewBox="0 0 20 20" fill="none" xmlns="http://www.w3.org/2000/svg">
<path d="M17.3188 2.68104C17.2344 2.59709 17.1278 2.53896 17.0116 2.5135C16.8953 2.48803 16.7742 2.49629 16.6625 2.53729L2.9125 7.53729C2.79392 7.58227 2.69183 7.66226 2.61978 7.76664C2.54774 7.87102 2.50916 7.99484 2.50916 8.12167C2.50916 8.2485 2.54774 8.37232 2.61978 8.4767C2.69183 8.58108 2.79392 8.66107 2.9125 8.70605L8.9125 11.106L11.3125 17.106C11.3576 17.2194 11.4349 17.3171 11.5348 17.3871C11.6348 17.457 11.753 17.4962 11.875 17.4998C12.0013 17.4972 12.1239 17.4564 12.2265 17.3828C12.3292 17.3091 12.4071 17.2061 12.45 17.0873L17.45 3.3373C17.4926 3.22672 17.5029 3.10631 17.4796 2.99012C17.4564 2.87393 17.4006 2.76674 17.3188 2.68104ZM11.875 15.1248L10.1313 10.7498L13.125 7.75604L12.2438 6.87479L9.225 9.89354L4.875 8.12479L15.8313 4.16855L11.875 15.1248Z" fill="white"/>
</svg>
